<svg xmlns="http://www.w3.org/2000/svg" width="359.619" height="410.868" viewBox="0 0 359.619 410.868">
  <g id="Layer_2" data-name="Layer 2" transform="translate(0 0.017)">
    <g id="Layer_1" data-name="Layer 1" transform="translate(0 -0.017)">
      <path id="Path_104" data-name="Path 104" d="M179.624,34v85.533h-6.748q-3.287-24.627-11.766-39.218a61.21,61.21,0,0,0-24.172-23.17,66.917,66.917,0,0,0-32.47-8.572q-18.974,0-31.381,11.573t-12.4,26.37a31.225,31.225,0,0,0,7.844,20.618q11.3,13.7,53.816,36.485Q157,162.237,169.683,172.2A69.721,69.721,0,0,1,189.2,195.635a61.821,61.821,0,0,1,6.848,28.281q0,28.088-21.788,48.431t-56.119,20.306A118.579,118.579,0,0,1,97.9,291.016q-5.659-.915-23.444-6.661T51.928,278.61a9.555,9.555,0,0,0-7.209,2.739q-2.646,2.739-3.922,11.3H34.05V207.83H40.8q4.775,26.619,12.774,39.859T78.1,269.67a76.057,76.057,0,0,0,36.212,8.759q22.8,0,36.031-12.039t13.222-28.461a38.632,38.632,0,0,0-5.011-18.426q-5.011-9.307-15.6-17.331-7.121-5.472-38.87-23.257T58.95,150.547Q45.541,139.964,38.613,127.2A57.894,57.894,0,0,1,31.678,99.1q0-26.631,20.431-45.879T104.089,34q19.7,0,41.777,9.674,10.215,4.557,14.411,4.557a10.86,10.86,0,0,0,7.75-2.826q3.007-2.826,4.849-11.4Z" transform="translate(-11.957 -12.824)" fill="#9b9b9b"/>
      <path id="Path_105" data-name="Path 105" d="M468.995,81.46a40.2,40.2,0,0,1-6.674,3.274c-.187.112-.43.137-.51.386h0l-.05-.056a1.525,1.525,0,0,0-.952.156c-1.046.355-2.092.691-3.169.965-1.245.367-2.527.7-3.822.946-3.555.759-7.171,1.121-10.763,1.637A133.122,133.122,0,0,0,426.3,91.924a14.112,14.112,0,0,0-3.312,1.108,3.741,3.741,0,0,0-.261.286,24.075,24.075,0,0,0-8.833,4.98l.622.579a3.113,3.113,0,0,0,1.818,1.1h.149A29.672,29.672,0,0,0,423.035,103a3.551,3.551,0,0,0,1.1-.479,31.4,31.4,0,0,1,6.045-2.59c.8-.255,1.587-.523,2.4-.753a106.41,106.41,0,0,1,11.4-2.422c1.245-.174,2.452-.4,3.685-.548,2.148-.349,4.314-.554,6.462-.9a.971.971,0,0,0,.672-.218.7.7,0,0,1,0-.118.8.8,0,0,0,.7.137c1.973-.286,3.934-.585,5.876-1.046a1.962,1.962,0,0,0,.921-.66,30.218,30.218,0,0,0,2.571-3.056,8.722,8.722,0,0,0,1.525-2.428q1.288-2.372,2.59-4.737l.747-1.973C469.443,81.1,469.225,81.316,468.995,81.46Z" transform="translate(-156.239 -30.634)" fill="#d32907"/>
      <path id="Path_106" data-name="Path 106" d="M465.464,106.531a3.111,3.111,0,0,0-1.127.093c-1.924.255-3.847.529-5.777.766a1.906,1.906,0,0,0-.579.212l-.187.131a5.207,5.207,0,0,0-.753.069c-1.307.2-2.615.367-3.922.542-.367.05-.772-.187-1.1.156a.623.623,0,0,1-.031.1.965.965,0,0,0-.816-.106c-.622.093-1.2.193-1.8.3a.854.854,0,0,0-.535.324h0a1.069,1.069,0,0,0-.118-.124,1.59,1.59,0,0,0-.455,0,41.871,41.871,0,0,0-9.5,2.285,23.856,23.856,0,0,0-4.594,1.911.3.3,0,0,0-.131.317,17.065,17.065,0,0,0,2.845.623,24.849,24.849,0,0,1,2.951.454h5.5c.143-.149.33-.125.5-.137a36.544,36.544,0,0,0,10.19-2.316,45.035,45.035,0,0,0,6.711-3.355,9.272,9.272,0,0,0,2.776-1.805C465.67,106.848,465.763,106.655,465.464,106.531Z" transform="translate(-163.845 -40.198)" fill="#d32907"/>
      <path id="Path_107" data-name="Path 107" d="M462.572,35.82l-.112.037h0Z" transform="translate(-174.573 -13.511)" fill="#d32907"/>
      <path id="Path_108" data-name="Path 108" d="M457.116,36.8a28.832,28.832,0,0,1-3.057.928c-.56.181-1.126.349-1.7.492A45.809,45.809,0,0,0,457.116,36.8Z" transform="translate(-170.761 -13.881)" fill="#d32907"/>
      <path id="Path_109" data-name="Path 109" d="M394.508,25.294a80.546,80.546,0,0,1,14.044-3.38c5.571-.971,11.236-1.37,16.777-2.577a49.712,49.712,0,0,0,8.958-2.82,2.2,2.2,0,0,1,.361-.1l3.193-1.563h0l.168-.149a29.562,29.562,0,0,0,6.375-4.563l.622-.566a36.835,36.835,0,0,0-5.92-4.358,27.857,27.857,0,0,0-5.777-2.683,13.141,13.141,0,0,0-2.335-.865h0c-.8-.212-1.587-.467-2.4-.623-1.625-.38-3.256-.629-4.88-.928-1.028.1-2.067.143-3.113.311a39.6,39.6,0,0,0-9.207,2.727A37.12,37.12,0,0,0,390.4,27.193a28.321,28.321,0,0,1,4.109-1.9Z" transform="translate(-147.371 -0.035)" fill="#d32907"/>
      <path id="Path_110" data-name="Path 110" d="M468.88,30.4a36.943,36.943,0,0,0,3.86-2.347,30.4,30.4,0,0,0,2.49-1.948C473.069,27.656,470.772,29.231,468.88,30.4Z" transform="translate(-176.997 -9.842)" fill="#d32907"/>
      <path id="Path_111" data-name="Path 111" d="M448.128,39.629h0q-.722.187-1.438.336l.946-.181c.622-.131,1.245-.261,1.867-.4C449.024,39.48,448.576,39.561,448.128,39.629Z" transform="translate(-168.62 -14.855)" fill="#d32907"/>
      <path id="Path_112" data-name="Path 112" d="M398.223,45.884a15.992,15.992,0,0,0-3.113,1.033,15.186,15.186,0,0,1-2.7,1.245,18.676,18.676,0,0,0-4.015,2.671v.093a.858.858,0,0,0,.28-.112,24.9,24.9,0,0,1,8.186-4.333,93.657,93.657,0,0,1,16.727-3.592A126.659,126.659,0,0,0,398.223,45.884Z" transform="translate(-146.616 -16.18)" fill="#d32907"/>
      <path id="Path_113" data-name="Path 113" d="M438.728,41.4l-.473.062-1.245.168Z" transform="translate(-164.966 -15.618)" fill="#d32907"/>
      <path id="Path_114" data-name="Path 114" d="M389.681,47.821a33.17,33.17,0,0,1,13.135-9.605,80.48,80.48,0,0,1,14.038-3.374c5.6-.977,11.236-1.376,16.808-2.583a49.4,49.4,0,0,0,8.958-2.82c.118-.044.243-.062.361-.093l3.193-1.563h0l.168-.149a29.631,29.631,0,0,0,6.375-4.563c.205-.187,3.654-4.98,3.86-5.173l.149-.149.155-.305c-.3-.766-.155-.461-.33-.716a54.7,54.7,0,0,0-4.88-5.964,1.65,1.65,0,0,0-1.246-1.108.317.317,0,0,0-.249-.28,47.571,47.571,0,0,0-6.225-4.482A3.865,3.865,0,0,0,441.7,3.729a2.131,2.131,0,0,1-.28-.093A37.168,37.168,0,0,0,422.842.068c0,.342.3.3.5.33a47.391,47.391,0,0,1,6.636,1.382,17.709,17.709,0,0,1,2.447.834c.971.374,1.936.772,2.876,1.245a37.223,37.223,0,0,1,11.61,8.759c.51.573.5.735-.112,1.394a31.479,31.479,0,0,1-9.132,6.648,51.322,51.322,0,0,1-15.955,4.688c-6.518.9-13.073,1.687-19.478,3.187a41.3,41.3,0,0,0-10.066,3.486,12.148,12.148,0,0,0-3.853,2.677,1.4,1.4,0,0,0-.149.809,37.86,37.86,0,0,0,.461,7.738,39.6,39.6,0,0,0,1.077,4.681.951.951,0,0,0-.025-.106Z" transform="translate(-146.516 0.017)" fill="#d32907"/>
      <path id="Path_115" data-name="Path 115" d="M464.077,43.1a32.3,32.3,0,0,0-2.708-8.236h0V34.83a.433.433,0,0,0,0,.044c-.915,4.121-10.383,11.753-15.146,13.459-.143.05-.286.087-.436.131-.093.2-.355.087-.479.237-1.363.417-2.689.952-4.09,1.245a23.583,23.583,0,0,1-3.822.921h0a49.763,49.763,0,0,1-6.225,1.077,165.064,165.064,0,0,0-21.682,3.86,15.56,15.56,0,0,0-3.113,1.033,15.175,15.175,0,0,1-2.7,1.208,24.905,24.905,0,0,0-5.6,3.467c-.218.181-3.735,4.787-4.059,4.787h-.05v.056l.187.579a3.022,3.022,0,0,0,1.015,1.868,46.039,46.039,0,0,0,4.464,6.256,2.876,2.876,0,0,0,1.394,1.488l1.917,1.706c.4-.075.573-.417.791-.685a23.416,23.416,0,0,1,10.2-6.985,71.932,71.932,0,0,1,13.241-3.262c4.482-.772,9.163-1.307,13.739-2A52.258,52.258,0,0,0,454.1,61.642c1.133-.5,2.247-1.04,3.33-1.643a1,1,0,0,0,.162-.2c.2.081.355-.075.523-.162a28.319,28.319,0,0,0,4.389-3.025,7.154,7.154,0,0,0,1.986-1.98c.056-.43.137-.853.168-1.282A38.3,38.3,0,0,0,464.077,43.1Z" transform="translate(-148.719 -13.137)" fill="#d32907"/>
      <path id="Path_116" data-name="Path 116" d="M462.768,324.378v5.852H370.91v-5.852H378.5q13.279,0,19.3-7.744,3.8-5.061,3.8-24.346V176.208q0-16.285-2.054-21.5-1.588-3.953-6.487-6.8a29.985,29.985,0,0,0-14.542-3.791h-7.6V138.26h91.858v5.852h-7.763q-13.116,0-19.13,7.744-3.959,5.073-3.953,24.353v116.08q0,16.285,2.054,21.5,1.575,3.947,6.642,6.8a29.078,29.078,0,0,0,14.386,3.791Z" transform="translate(-140.014 -52.181)" fill="#9b9b9b"/>
      <path id="Path_117" data-name="Path 117" d="M28.169,502.716v38.894H46.221q6.225,0,9.082-2.739t3.835-10.856h2.7v33.5h-2.7q-.075-5.765-1.5-8.466a9.46,9.46,0,0,0-3.94-4.053q-2.49-1.345-7.47-1.345H28.169v31.082q0,7.514.946,9.923a6.491,6.491,0,0,0,3.063,3.112,13.825,13.825,0,0,0,6.717,1.756h3.573v2.7H0v-2.7H3.5q6.126,0,8.9-3.579,1.749-2.334,1.749-11.206V514.811q0-7.514-.946-9.923a6.582,6.582,0,0,0-2.994-3.113A13.54,13.54,0,0,0,3.5,500.021H0V497.3H73.624l.952,21.745H72.018Q70.151,512.1,67.6,508.866a14.528,14.528,0,0,0-6.225-4.713q-3.66-1.438-11.4-1.438Z" transform="translate(0 -187.715)" fill="#d32907"/>
      <path id="Path_118" data-name="Path 118" d="M201.4,500v-2.7h35.022V500h-3.735a10.034,10.034,0,0,0-8.983,4.893q-1.544,2.259-1.538,10.507V555.53q0,14.884-2.951,23.095t-11.6,14.081q-8.621,5.878-23.506,5.877-16.185,0-24.6-5.6a30.468,30.468,0,0,1-11.89-15.1q-2.353-6.518-2.353-24.4v-38.67q0-9.12-2.521-11.971T134.615,500H130.88v-2.7h42.76V500h-3.791q-6.132,0-8.759,3.872-1.824,2.627-1.824,10.944v43.121a95.311,95.311,0,0,0,1.058,13.21q1.058,7.47,3.835,11.6a20.792,20.792,0,0,0,7.987,6.848,27.686,27.686,0,0,0,12.805,2.7,35.334,35.334,0,0,0,17.368-4.227q7.663-4.24,10.471-10.838t2.826-22.354V514.811q0-9.263-2.042-11.6Q210.723,500,205.114,500Z" transform="translate(-49.406 -187.715)" fill="#d32907"/>
      <path id="Path_119" data-name="Path 119" d="M377.18,493.66V527.9h-2.7q-1.307-9.848-4.706-15.687a24.428,24.428,0,0,0-9.668-9.269,26.767,26.767,0,0,0-12.985-3.467,17.69,17.69,0,0,0-12.556,4.632q-4.967,4.632-4.98,10.546A12.5,12.5,0,0,0,332.7,522.9q4.531,5.472,21.526,14.591,13.87,7.47,18.937,11.423a27.806,27.806,0,0,1,7.806,9.375A24.707,24.707,0,0,1,383.7,569.6q0,11.205-8.715,19.373t-22.41,8.136a47.166,47.166,0,0,1-8.093-.66,83.89,83.89,0,0,1-9.375-2.658q-7.115-2.291-9.027-2.278a3.814,3.814,0,0,0-2.882,1.1c-.71.728-1.245,2.241-1.569,4.526h-2.7V563.2h2.7q1.867,10.651,5.1,15.943a24.779,24.779,0,0,0,9.817,8.8,30.437,30.437,0,0,0,14.48,3.5q9.12,0,14.417-4.812a14.861,14.861,0,0,0,5.285-11.386,15.453,15.453,0,0,0-2-7.37,22.021,22.021,0,0,0-6.225-6.929q-2.845-2.2-15.563-9.337t-18.053-11.349a30.614,30.614,0,0,1-8.136-9.338,23.172,23.172,0,0,1-2.776-11.205,24.347,24.347,0,0,1,8.174-18.351q8.173-7.694,20.8-7.7a41.721,41.721,0,0,1,16.708,3.866q4.09,1.83,5.765,1.824a4.359,4.359,0,0,0,3.113-1.127q1.207-1.133,1.93-4.563Z" transform="translate(-120.033 -186.34)" fill="#d32907"/>
      <path id="Path_120" data-name="Path 120" d="M469.612,502.716v39.093h21.744q8.472,0,11.311-2.552,3.791-3.361,4.233-11.827h2.7v34.425h-2.7q-1.02-7.221-2.042-9.263a9.111,9.111,0,0,0-4.308-4.015q-2.988-1.457-9.194-1.457H469.612v32.613c0,4.358.193,7.041.585,7.994a4.586,4.586,0,0,0,2.042,2.259q1.457.841,5.547.841h16.808q8.4,0,12.189-1.171a18.12,18.12,0,0,0,7.3-4.594q4.494-4.532,9.263-13.627h2.919l-8.535,24.807H441.45v-2.7h3.5a13.877,13.877,0,0,0,6.642-1.68,6.137,6.137,0,0,0,3.174-3.5q.841-2.341.841-9.562V514.544q0-9.413-1.9-11.6-2.627-2.913-8.759-2.92h-3.5V497.3H517.7l1.1,21.67h-2.845q-1.544-7.807-3.392-10.726a11.68,11.68,0,0,0-5.509-4.451q-2.92-1.077-10.29-1.077Z" transform="translate(-166.642 -187.715)" fill="#d32907"/>
    </g>
  </g>
</svg>
